HIERARCHY
ROOT Hips
{
	OFFSET 0.000000 0.000000 0.000000
	CHANNELS 6 Xposition Yposition Zposition Zrotation Yrotation Xrotation 
	JOINT LowerBack
	{
		OFFSET 0.000000 0.000000 0.000000
		CHANNELS 3 Zrotation Yrotation Xrotation
		JOINT Spine
		{
			OFFSET 0.028270 2.035590 -0.193380
			CHANNELS 3 Zrotation Yrotation Xrotation
			JOINT Spine1
			{
				OFFSET 0.056720 2.048850 -0.042750
				CHANNELS 3 Zrotation Yrotation Xrotation
				JOINT Neck
				{
					OFFSET 0.000000 0.000000 0.000000
					CHANNELS 3 Zrotation Yrotation Xrotation
					JOINT Neck1
					{
						OFFSET -0.054170 1.746240 0.172020
						CHANNELS 3 Zrotation Yrotation Xrotation
						JOINT Head
						{
							OFFSET 0.104070 1.761360 -0.123970
							CHANNELS 3 Zrotation Yrotation Xrotation
							End Site
							{
								OFFSET 0.000000 0.000000 0.000000
							}
						}
					}
				}
				JOINT LeftShoulder
				{
					OFFSET 0.000000 0.000000 0.000000
					CHANNELS 3 Zrotation Yrotation Xrotation
					JOINT LeftArm
					{
						OFFSET 3.362410 1.200890 -0.311210
						CHANNELS 3 Zrotation Yrotation Xrotation
						JOINT LeftForeArm
						{
							OFFSET 4.983000 -0.000000 -0.000000
							CHANNELS 3 Zrotation Yrotation Xrotation
							JOINT LeftHand
							{
								OFFSET 3.483560 -0.000000 -0.000000
								CHANNELS 3 Zrotation Yrotation Xrotation
								JOINT LeftFingerBase
								{
									OFFSET 0.000000 0.000000 0.000000
									CHANNELS 3 Zrotation Yrotation Xrotation
									JOINT LeftHandIndex1
									{
										OFFSET 0.715260 -0.000000 -0.000000
										CHANNELS 3 Zrotation Yrotation Xrotation
										End Site
										{
											OFFSET 0.000000 0.000000 0.000000
										}
									}
								}
								JOINT LThumb
								{
									OFFSET 0.000000 0.000000 0.000000
									CHANNELS 3 Zrotation Yrotation Xrotation
									End Site
									{
										OFFSET 0.000000 0.000000 0.000000
									}
								}
							}
						}
					}
				}
				JOINT RightShoulder
				{
					OFFSET 0.000000 0.000000 0.000000
					CHANNELS 3 Zrotation Yrotation Xrotation
					JOINT RightArm
					{
						OFFSET -3.136600 1.374050 -0.404650
						CHANNELS 3 Zrotation Yrotation Xrotation
						JOINT RightForeArm
						{
							OFFSET -5.241900 -0.000000 -0.000000
							CHANNELS 3 Zrotation Yrotation Xrotation
							JOINT RightHand
							{
								OFFSET -3.444170 -0.000000 -0.000000
								CHANNELS 3 Zrotation Yrotation Xrotation
								JOINT RightFingerBase
								{
									OFFSET 0.000000 0.000000 0.000000
									CHANNELS 3 Zrotation Yrotation Xrotation
									JOINT RightHandIndex1
									{
										OFFSET -0.622530 -0.000000 -0.000000
										CHANNELS 3 Zrotation Yrotation Xrotation
										End Site
										{
											OFFSET 0.000000 0.000000 0.000000
										}
									}
								}
								JOINT RThumb
								{
									OFFSET 0.000000 0.000000 0.000000
									CHANNELS 3 Zrotation Yrotation Xrotation
									End Site
									{
										OFFSET 0.000000 0.000000 0.000000
									}
								}
							}
						}
					}
				}
			}
		}
	}
}
}
MOTION
Frames: 10
Frame Time: 0.008333
-20.364419 16.143571 -3.001297 -163.039386 87.487865 -154.310129 8.569939 -6.316917 -4.734462 1.453562 -7.092932 -3.172450 -6.065217 -6.963746 3.425298 12.887814 -23.518359 -13.947741 -2.100963 -0.062524 -1.650712 0.000000 0.000000 0.000000 5.215896 8.257885 2.621597 -21.857778 -11.087545 6.198637 -1.809745 -45.306669 -0.015619 4.947109 -0.314122 -0.022822 -0.189827 0.225059 0.000000 0.000000 0.000000 0.000000 0.000000 0.000000 0.000000 19.463302 -23.836712 1.298904 83.880289 -25.552308 -3.377221 4.215413 21.160789 0.002807 7.602337 4.461846 0.295160 0.037139 0.003036 0.000000 0.000000 0.000000 0.000000 0.000000 0.000000 0.000000 
-20.124267 16.158968 -2.967574 -163.418617 87.388417 -154.699172 8.703297 -6.301787 -4.894448 1.480958 -7.092007 -3.205060 -6.077327 -6.960314 3.436505 12.867328 -23.416234 -13.964978 -2.128117 -0.065478 -1.653574 0.000000 0.000000 0.000000 5.124291 8.400774 2.640866 -22.008259 -10.184455 6.274678 -1.866439 -44.655962 -0.015664 5.260573 -0.406737 -0.028295 -0.195852 0.216565 0.000000 0.000000 0.000000 0.000000 0.000000 0.000000 0.000000 19.537408 -23.692610 1.273818 83.405871 -25.132818 -4.241055 4.287471 20.592434 0.001922 8.088745 3.822285 0.268844 0.036901 0.005858 0.000000 0.000000 0.000000 0.000000 0.000000 0.000000 0.000000 
-19.882923 16.175603 -2.932684 -163.700423 87.302795 -155.000998 8.824971 -6.277419 -5.046373 1.503749 -7.081144 -3.234808 -6.092618 -6.947115 3.452799 12.841674 -23.286488 -13.975750 -2.160267 -0.069060 -1.654714 0.000000 0.000000 0.000000 4.998577 8.588380 2.650894 -22.285776 -9.302439 6.352543 -1.931564 -43.919948 -0.015559 5.580349 -0.484986 -0.033472 -0.201568 0.206837 0.000000 0.000000 0.000000 0.000000 0.000000 0.000000 0.000000 19.612236 -23.519039 1.249750 82.921790 -24.580027 -5.333382 4.363689 19.854062 0.000847 8.565531 3.017032 0.224424 0.037047 0.009077 0.000000 0.000000 0.000000 0.000000 0.000000 0.000000 0.000000 
-19.641100 16.193144 -2.896743 -163.857262 87.238175 -155.192035 8.930960 -6.242483 -5.182159 1.520118 -7.058516 -3.261138 -6.112838 -6.922525 3.469303 12.813390 -23.120600 -13.977702 -2.198574 -0.073405 -1.653526 0.000000 0.000000 0.000000 4.849039 8.794988 2.651334 -22.692724 -8.401626 6.422976 -2.004212 -43.126583 -0.015242 5.893209 -0.549978 -0.038252 -0.206703 0.195866 0.000000 0.000000 0.000000 0.000000 0.000000 0.000000 0.000000 19.689967 -23.306128 1.230146 82.435397 -23.901163 -6.673687 4.440034 18.951212 -0.000430 8.992425 2.029787 0.158101 0.037713 0.012591 0.000000 0.000000 0.000000 0.000000 0.000000 0.000000 0.000000 
-19.400112 16.211296 -2.859788 -163.907490 87.201518 -155.296139 9.015009 -6.195311 -5.291649 1.528009 -7.021728 -3.282129 -6.138731 -6.884372 3.483791 12.787014 -22.918820 -13.972291 -2.242816 -0.078445 -1.650515 0.000000 0.000000 0.000000 4.681182 9.015433 2.642150 -23.221005 -7.480907 6.489750 -2.083749 -42.285346 -0.014656 6.186431 -0.605846 -0.042639 -0.211081 0.183717 0.000000 0.000000 0.000000 0.000000 0.000000 0.000000 0.000000 19.775557 -23.053134 1.216590 81.944045 -23.099806 -8.232019 4.509752 17.901058 -0.001917 9.309447 0.843082 0.067075 0.039033 0.016327 0.000000 0.000000 0.000000 0.000000 0.000000 0.000000 0.000000 
-19.160765 16.229798 -2.821907 -163.888578 87.197650 -155.357301 9.070245 -6.134661 -5.363907 1.525205 -6.968704 -3.296061 -6.171248 -6.830846 3.492480 12.766222 -22.679061 -13.958981 -2.293515 -0.084212 -1.645607 0.000000 0.000000 0.000000 4.504436 9.235220 2.623627 -23.865770 -6.526657 6.555242 -2.169525 -41.409368 -0.013759 6.445950 -0.655043 -0.046532 -0.214564 0.170437 0.000000 0.000000 0.000000 0.000000 0.000000 0.000000 0.000000 19.874577 -22.756483 1.210308 81.443595 -22.185924 -9.972661 4.563645 16.731225 -0.003587 9.427789 -0.536060 -0.045653 0.041209 0.020107 0.000000 0.000000 0.000000 0.000000 0.000000 0.000000 0.000000 
-18.923533 16.248456 -2.783162 -163.845962 87.230149 -155.427510 9.091166 -6.060798 -5.386651 1.509976 -6.898962 -3.300666 -6.212895 -6.761305 3.490396 12.756065 -22.405822 -13.934801 -2.349561 -0.090593 -1.638190 0.000000 0.000000 0.000000 4.323856 9.475509 2.600101 -24.610913 -5.578536 6.641926 -2.262788 -40.486400 -0.012555 6.664543 -0.698306 -0.049931 -0.217278 0.156190 0.000000 0.000000 0.000000 0.000000 0.000000 0.000000 0.000000 19.981785 -22.417887 1.192617 80.904421 -21.149957 -11.818305 4.572891 15.516215 -0.004318 8.983721 -1.458286 -0.115563 0.045379 0.020722 0.000000 0.000000 0.000000 0.000000 0.000000 0.000000 0.000000 
-18.689427 16.267171 -2.743637 -163.820510 87.299630 -155.553512 9.072268 -5.975060 -5.351843 1.480214 -6.813101 -3.297202 -6.268403 -6.675944 3.462010 12.756876 -22.088456 -13.882796 -2.413515 -0.098063 -1.623606 0.000000 0.000000 0.000000 4.164355 9.700150 2.577682 -25.466466 -4.583732 6.743053 -2.364815 -39.538089 -0.011039 6.825415 -0.734269 -0.052435 -0.219215 0.141037 0.000000 0.000000 0.000000 0.000000 0.000000 0.000000 0.000000 20.085806 -22.019880 1.140075 80.308526 -19.996548 -13.719519 4.513232 14.365711 -0.002521 7.701932 -0.915261 -0.062026 0.052253 0.013682 0.000000 0.000000 0.000000 0.000000 0.000000 0.000000 0.000000 
-18.458937 16.285878 -2.703515 -163.861333 87.402466 -155.787223 9.011114 -5.873494 -5.255425 1.437357 -6.706689 -3.281861 -6.325834 -6.571929 3.426202 12.764001 -21.733278 -13.827574 -2.483908 -0.106099 -1.608670 0.000000 0.000000 0.000000 4.011300 9.919011 2.545624 -26.419055 -3.589328 6.871593 -2.471600 -38.547868 -0.009278 6.924545 -0.759002 -0.053748 -0.220300 0.125111 0.000000 0.000000 0.000000 0.000000 0.000000 0.000000 0.000000 20.221763 -21.574666 1.105664 79.706619 -18.777797 -15.596165 4.439078 13.190131 -0.001692 6.392073 -0.864053 -0.048207 0.058687 0.008897 0.000000 0.000000 0.000000 0.000000 0.000000 0.000000 0.000000 
-18.232194 16.304658 -2.662987 -164.032580 87.535152 -156.191538 8.907053 -5.757934 -5.097615 1.381024 -6.581405 -3.256277 -6.389440 -6.450308 3.374225 12.777320 -21.335846 -13.757263 -2.561519 -0.114927 -1.590148 0.000000 0.000000 0.000000 3.881017 10.123387 2.509351 -27.472741 -2.585139 7.025882 -2.584717 -37.515395 -0.007345 6.953090 -0.767316 -0.053468 -0.220671 0.108596 0.000000 0.000000 0.000000 0.000000 0.000000 0.000000 0.000000 20.373772 -21.072552 1.067126 79.078677 -17.491642 -17.382314 4.330177 12.089982 -0.000426 4.762557 -0.412835 -0.016882 0.065959 0.002245 0.000000 0.000000 0.000000 0.000000 0.000000 0.000000 0.000000 
